<svg viewBox="0,0,147.962,154.3266" height="154.3266" width="147.962" xmlns:xlink="http://www.w3.org/1999/xlink" xmlns="http://www.w3.org/2000/svg" version="1.1"><g transform="translate(-166.2986,-102.75)"><g style="mix-blend-mode: normal" stroke-dashoffset="0" stroke-dasharray="" stroke-miterlimit="10" stroke-linejoin="miter" fill-rule="nonzero" data-paper-data="{&quot;isPaintingLayer&quot;:true}"><g stroke-linecap="butt" stroke-width="0.85737" stroke="none"><path fill="#ff9900" d="M287.9889,162.726c-4.0039,7.0184 -2.6947,14.4707 -2.0834,21.8664c-1.004,5.2095 -2.5404,9.8847 -3.8513,14.7855c0.4638,7.598 5.0988,11.4579 8.1202,16.7642c-1.3778,8.9922 -3.066,17.8772 -8.0173,25.6132l1.5621,5.9365c-7.7352,5.4469 -14.187,1.3135 -17.5967,-1.2509l-3.5401,-44.8767c-7.8099,1.0657 -15.6188,0.7785 -23.4287,-0.313c-5.3569,8.4666 -10.3716,17.1655 -11.223,25.2883c-1.1035,10.5346 2.9322,19.8028 3.1011,23.234c-1.8888,3.0463 -4.8767,2.7942 -7.7044,3.0197l-1.5604,2.6021c-5.1374,2.2283 -10.2748,1.3418 -15.4113,-0.7296c-5.5729,-11.1605 -0.0892,-53.5122 9.2674,-49.7698c-5.2549,-12.5656 -5.5147,-25.8061 4.4772,-37.0694c-3.5221,-1.5776 -9.4963,-2.675 -10.7241,17.4939l-1.1463,-2.1881c-1.3281,7.8973 -0.998,16.2361 -4.9968,23.5315l-1.25,-1.8759c-2.5224,2.8233 -7.4935,18.1489 -25.8224,9.3728l3.0188,-0.4158c-11.6903,-5.0799 -11.6389,-11.3748 -12.2862,-17.595c3.1243,4.484 15.4979,13.0183 24.6778,4.2688l-4.9985,0.1038c4.635,-1.1103 10.2097,-9.1534 12.8238,-27.5586l-2.8285,0.0703c9.0496,-14.7177 18.4739,-15.4611 28.1125,-8.2274c4.5466,-1.8099 9.0924,-1.6625 13.64,-1.5621c6.2434,2.152 12.4345,5.2017 19.056,0.9379l-0.6251,-2.3946l-1.665,2.0825c-0.8153,-8.7117 0.1252,-17.4227 3.7476,-26.1345l-3.5401,2.0826c2.0131,-5.3809 3.9688,-10.7986 7.6024,-15.0984c0.09,-6.8941 -0.7905,-12.8306 7.0802,-21.6573c2.8104,1.5596 4.7207,4.5553 6.1439,8.3303l8.8507,-5.4143l-1.0409,2.7067c5.9794,-1.533 9.8161,-5.5746 24.8853,3.4364l-3.2288,-0.1038c7.7566,7.4438 7.496,15.1961 8.3294,22.9074l-6.6627,-2.2918c0.4424,6.1808 0.9843,12.3359 -0.7305,19.0552c7.5492,10.6546 -13.2121,11.3662 -18.5339,11.037z"></path><path fill="#ffffff" d="M291.4767,141.5376c0.1407,4.19 -0.1526,7.3632 -4.4763,8.1725c-6.3506,1.1892 -11.1219,-4.5072 -10.7249,-10.6203c0.2298,-3.5495 5.0971,-6.9301 8.6423,-6.4028c3.6319,0.5393 6.3729,3.3163 6.5589,8.8506z"></path><path fill="#ffffff" d="M307.8843,155.9364c-2.6107,5.8447 -8.8901,7.4857 -17.1809,6.8204c-4.7207,-1.1969 -17.325,1.004 -15.0461,-8.7992c1.5159,-6.5169 17.4124,-7.6504 25.0937,-0.0523l7.1333,2.0311z"></path><path fill="#ffffff" d="M265.7589,200.5765c-9.7166,1.4618 -19.639,2.1228 -30.4548,-0.6782c2.3372,-3.2889 4.3632,-6.6584 5.0499,-10.3605c4.3529,-0.6199 11.3337,-1.5724 19.4187,1.0417c5.0577,2.182 5.1889,6.2142 5.9862,9.997z"></path><path fill="#ffffff" d="M198.5227,209.6321c-3.8376,3.931 -8.9724,10.5491 -22.2377,4.4909l2.7264,-0.2212c-6.9233,-3.3901 -12.6771,-7.7978 -12.2227,-17.595c3.8402,5.3397 17.3919,11.932 24.4446,4.1239l-4.3177,0.3104l5.3483,-4.3615h1.7679l-0.1663,1.6753l2.7418,-1.7481l-2.134,7.0673l5.8165,-2.5773l-1.7671,8.8353z"></path><path fill="#ffffff" d="M307.075,149.555c-3.6396,1.3375 -4.4832,-3.2298 -4.3341,-9.6189c0.3721,-4.7053 3.0343,-6.1431 4.7242,-5.9082c0.7485,5.1751 0.5804,10.3511 -0.3901,15.5271z"></path></g><g><path stroke-linecap="butt" stroke-width="0.85737" stroke="none" fill="#000000" d="M284.2105,132.38c1.641,0.0626 3.4072,0.547 4.8124,1.9368c1.4053,1.3907 2.417,3.6636 2.651,7.2294c0.2161,2.9751 -0.2212,5.0131 -1.0854,6.3789c-0.8642,1.3649 -2.152,2.0182 -3.4827,2.23c-1.3297,0.2126 -2.7153,0.0069 -3.8839,-0.3224c-1.1677,-0.3292 -3.3626,-1.4926 -4.5801,-3.1662c2.8448,3.0917 9.3823,4.8296 11.4168,0.9259c0.7657,-1.2089 1.2089,-3.1148 0.998,-6.0059c-0.228,-3.4655 -1.2046,-5.5712 -2.4752,-6.8281c-1.2698,-1.2569 -2.8645,-1.6933 -4.4018,-1.7508c-1.713,-0.0651 -3.4123,0.6765 -4.8038,1.8099c-1.3916,1.1335 -2.4581,2.6519 -2.9143,4.0794l-0.5967,-0.186c0.5024,-1.5724 1.6402,-3.1757 3.1217,-4.3821c1.4798,-1.208 3.3172,-2.0208 5.224,-1.9488z"></path><path stroke-linecap="butt" stroke-width="0.85737" stroke="none" fill="#000000" d="M286.5974,145.7885c0.0163,-0.619 0.5213,-1.1137 1.142,-1.1137c0.6294,0 1.1404,0.5118 1.1404,1.142c0,0.6302 -0.511,1.1412 -1.1404,1.1412c-0.6301,0 -1.142,-0.511 -1.142,-1.1412"></path><path stroke-linecap="butt" stroke-width="0.85737" stroke="none" fill="#000000" d="M304.4334,145.1806c0.0154,-0.6181 0.5213,-1.1128 1.1394,-1.1128c0.6311,0 1.1421,0.5118 1.1421,1.1411c0,0.6311 -0.511,1.142 -1.1421,1.142c-0.6293,0 -1.1394,-0.5109 -1.1394,-1.142"></path><path stroke-linecap="butt" stroke-width="0.85737" stroke="none" fill="#000000" d="M306.2673,133.6909c0.529,-0.0385 1.0477,0.0704 1.5073,0.3036l-0.2829,0.5573c-0.7288,-0.3687 -1.6059,-0.3593 -2.3964,0.234c-0.7871,0.5925 -1.5073,1.8091 -1.7516,3.9234c0,0.0068 0.0017,0.0137 0,0.0197c-0.3413,2.9914 -0.7768,5.7813 0.2675,8.7401c0.7167,1.9196 1.4884,2.7547 3.835,1.8262c-0.9457,0.6301 -1.8013,1.0305 -2.5181,0.6344c-0.715,-0.3952 -1.2338,-1.1634 -1.6916,-2.1125l-0.0111,-0.0189l-0.0112,-0.0103c-1.1995,-3.1603 -0.7991,-6.1645 -0.499,-9.107l0.0112,-0.0103v-0.0103c0.2529,-2.2369 1.0099,-3.6404 1.9848,-4.3726c0.4878,-0.3653 1.028,-0.5573 1.5561,-0.5968z"></path><path stroke-linecap="butt" stroke-width="0.85737" stroke="none" fill="#000000" d="M303.7381,157.5191c-1.8785,-0.2692 -4.9368,-1.2518 -4.8948,-2.9416c0.0875,-1.4644 1.9608,-1.8365 4.8159,-1.6402c2.3543,-0.0506 4.839,-0.1912 4.6332,1.5098c-1.0382,2.6193 -2.8979,2.9288 -4.5543,3.072z"></path><path stroke-linecap="butt" stroke-width="0.42869" stroke="#000000" fill="none" d="M293.7677,160.904c-2.6476,-0.6996 -2.3158,-2.8267 -2.2387,-4.1128c0,0 7.5501,1.6659 8.0697,1.7696c-1.293,2.0166 -3.15,2.9623 -5.831,2.3432z"></path><path stroke-linecap="round" stroke-width="0.85737" stroke="#000000" fill="none" d="M287.8843,155.3842c-0.3635,0 -7.0279,-2.1348 -7.0279,-2.1348"></path><path stroke-linecap="round" stroke-width="0.85737" stroke="#000000" fill="none" d="M279.633,159.3676c0,0 8.019,-1.0923 8.3825,-1.0923"></path><path stroke-linecap="round" stroke-width="0.85737" stroke="#000000" fill="none" d="M307.2259,157.8578l4.478,1.5621"></path><path stroke-linecap="round" stroke-width="0.85737" stroke="#000000" fill="none" d="M312.4061,154.2388l-4.322,0.8342"></path><path stroke-linecap="butt" stroke-width="0.85737" stroke="none" fill="#000000" d="M276.4633,138.8909c-2.2678,1.0632 -3.6962,-0.2563 -4.1712,-1.2132c1.1532,1.0143 2.5396,1.3333 3.8531,0.7031z"></path><path stroke-linecap="butt" stroke-width="0.85737" stroke="none" fill="#000000" d="M276.5884,137.6975c-1.6513,-0.0643 -3.0136,-0.806 -3.8273,-1.7568c1.1883,0.6593 2.6759,1.1883 4.1394,1.0923z"></path><path stroke-linecap="butt" stroke-width="0.85737" stroke="none" fill="#000000" d="M277.3686,136.3308c-1.2903,-0.3541 -2.6132,-0.6559 -3.0719,-2.7076c0.7562,1.0554 2.0217,1.9634 3.462,2.1083z"></path><path stroke-linecap="butt" stroke-width="0.85737" stroke="none" fill="#000000" d="M307.6546,134.6812c2.0276,0.4107 2.4332,-0.0566 3.865,-0.8471c-0.7836,1.5056 -1.8982,1.5699 -3.6807,1.6762z"></path><path stroke-linecap="butt" stroke-width="0.85737" stroke="none" fill="#000000" d="M306.9181,133.7432c1.5338,0.2152 2.9485,-0.3986 3.9405,-1.7301c-0.7434,2.1005 -2.0269,2.3886 -3.4433,2.4289z"></path></g><g stroke-linecap="butt"><path stroke-width="0.85737" stroke="none" fill="#000000" d="M287.7695,162.4413l0.7527,0.5659c-3.0094,4.0519 -3.4543,9.6857 -2.4083,17.5101c0.6773,5.0543 -0.2187,8.7204 -1.2707,11.6012c-1.052,2.8808 -2.2171,4.9848 -2.2206,6.8967c-0.0051,4.28 1.8588,7.8759 3.7665,10.8295c0.9542,1.4764 1.9145,2.7848 2.651,3.9516c0.7373,1.1652 1.286,2.1769 1.2912,3.1698c0.048,7.6272 -2.3749,15.2218 -5.3998,20.9422c-1.5124,2.8602 -3.1697,5.2566 -4.773,6.9542c-1.6041,1.701 -3.1397,2.7513 -4.5578,2.7684c-2.8807,0.0386 -5.0036,-2.0088 -6.3403,-4.3811c-1.3357,-2.3724 -1.9565,-5.0817 -1.839,-6.7896c0.0669,-0.9688 0.6379,-2.2155 1.4266,-3.7073c0.7914,-1.4901 1.8151,-3.1894 2.8285,-4.8527c1.0126,-1.6616 2.0217,-3.2864 2.7582,-4.6264c0.3704,-0.6696 0.6679,-1.2689 0.8711,-1.7508c0.2049,-0.4818 0.2984,-0.8659 0.2949,-0.998c0,0 -0.078,-0.2512 -0.3035,-0.5667c-0.2238,-0.3155 -0.5718,-0.7219 -0.9885,-1.1737c-0.8317,-0.9046 -1.9643,-2.0183 -3.15,-3.2478c-2.3698,-2.4581 -4.9454,-5.3114 -5.693,-7.9624c-0.4604,-1.6359 -0.066,-3.1646 -0.0686,-5.1743c0.1621,-3.3677 -0.9645,-6.859 -1.9239,-9.2219c2.2043,3.8033 2.8627,7.0973 2.8627,9.2219c0.0018,2.122 -0.3481,3.5821 0.0292,4.9179c0.6379,2.2601 3.1191,5.1254 5.4683,7.5612c1.1746,1.2201 2.3107,2.3372 3.1689,3.2683c0.4295,0.4656 0.7896,0.8883 1.0554,1.2629c0.2675,0.3739 0.469,0.6765 0.481,1.0855c0.0111,0.4235 -0.138,0.8548 -0.3618,1.3898c-0.2238,0.535 -0.541,1.1532 -0.9191,1.8399c-0.7554,1.371 -1.7662,3.0051 -2.7779,4.665c-1.0117,1.6599 -2.0268,3.348 -2.7993,4.803c-0.7708,1.4558 -1.2784,2.7265 -1.3204,3.3369c-0.0952,1.3932 0.4793,4.0554 1.7216,6.2614c1.2423,2.206 3.0797,3.9345 5.5078,3.9028c0.9191,-0.012 2.3595,-0.8591 3.883,-2.4753c1.5245,-1.6153 3.156,-3.9499 4.6367,-6.7484c2.9614,-5.5995 5.3303,-13.0698 5.2832,-20.4946c-0.0035,-0.6199 -0.4339,-1.5562 -1.1455,-2.6793c-0.7099,-1.1249 -1.6684,-2.4367 -2.6407,-3.944c-1.9437,-3.0102 -3.9285,-6.7921 -3.9225,-11.3465c0.0034,-2.2703 1.2561,-4.406 2.2798,-7.2088c1.0228,-2.8036 1.8665,-6.2631 1.2132,-11.1527c-1.0598,-7.917 -0.6362,-13.8552 2.5927,-18.2038z"></path><path stroke-width="1.28606" stroke="#000000" fill="none" d="M282.0542,242.0691c1.6059,3.4193 2.4264,5.795 0.469,6.8282c-7.2929,2.8739 -16.2216,-0.7108 -16.3845,-2.6236l-3.8744,-44.4815"></path><path stroke-width="1.28606" stroke="#000000" fill="none" d="M266.1113,200.5036c-7.1839,2.9811 -29.5246,1.3752 -30.7755,-1.0314"></path><path stroke-width="1.28606" stroke="#000000" fill="none" d="M222.7676,252.7015c1.6993,0.0651 3.3875,0.1629 5.2282,-0.295c1.263,-0.5804 4.4378,-1.4747 2.7248,-6.4809c-7.7678,-20.1826 0.4098,-30.3588 8.4666,-45.1331"></path><path stroke-width="0.85737" stroke="none" fill="#000000" d="M234.4956,162.6274c1.4747,0.0488 3.0154,0.2212 4.6255,0.529h0.0103c3.7442,0.7622 12.0984,5.0396 18.1078,0.529l0.5581,0.7424c-6.5632,4.9282 -15.5399,0.3233 -18.8416,-0.3515c-0.0035,0 -0.0069,0 -0.0112,0c-12.5348,-2.3852 -20.4501,3.4947 -24.2208,12.1019c-3.7725,8.6072 -3.2718,19.9691 1.3109,28.2899l0.4493,0.8308l-0.9294,-0.1363c-1.5296,-0.2161 -2.7393,0.0977 -3.7468,0.9885c-1.0074,0.89 -1.8176,2.411 -2.3577,4.6264c-3.1269,12.4826 -7.2577,25.9751 -4.118,40.7922c0.0009,0.0026 0,0.0069 0,0.0094c0.2109,0.9234 0.4235,1.6265 0.7245,2.1538c0.3009,0.5281 0.673,0.8994 1.3195,1.214c1.2886,0.6268 3.7021,0.9431 8.091,1.1926c0.0129,0 0.0266,0 0.0386,0c1.4473,-0.0214 3.4038,-0.0917 4.8142,-0.6936c0.709,-0.3044 1.268,-0.7279 1.6144,-1.3315c0.3455,-0.6044 0.4973,-1.4189 0.2932,-2.5824v-0.012c-0.8556,-5.6167 -6.0676,-15.0992 -2.5918,-28.0259c1.9762,-7.3494 7.953,-14.9646 16.1898,-25.3457v-0.0103l0.0103,-0.0094c3.4878,-3.3532 4.7687,-10.1445 5.2917,-14.5368c-0.3361,5.3714 -0.8016,10.8972 -4.5681,15.1421c-0.006,0.0077 -0.0129,0.0137 -0.0197,0.0197c-8.224,10.3674 -14.0995,17.9431 -15.9935,24.9839c-3.3823,12.5837 1.695,21.629 2.6124,27.6341c0,0.0034 0,0.0085 0,0.0103c0.2298,1.3177 0.0592,2.38 -0.4106,3.198c-0.4707,0.8222 -1.2158,1.3743 -2.0543,1.7327c-1.677,0.7151 -3.7459,0.7408 -5.2034,0.7639h-0.018h-0.0198c-4.4412,-0.2537 -6.9035,-0.523 -8.482,-1.2912c-0.7887,-0.3841 -1.3392,-0.9234 -1.7216,-1.5938c-0.3824,-0.6714 -0.6139,-1.4601 -0.8325,-2.4161v-0.0103c-3.2023,-15.0975 1.0109,-28.7624 4.1274,-41.2123c0.5676,-2.3286 1.4396,-4.0245 2.6519,-5.0962c1.016,-0.8977 2.278,-1.2921 3.6781,-1.2621c-4.388,-8.5309 -4.8081,-19.7299 -1.0083,-28.398c3.4167,-7.8004 10.3194,-13.5088 20.6302,-13.1692z"></path><path stroke-width="0.85737" stroke="none" fill="#000000" d="M270.2773,102.75v0.0094c0.4518,0.0095 0.8436,0.2341 1.262,0.5668c0.4262,0.3386 0.872,0.8093 1.3393,1.3898c0.9388,1.1608 1.9514,2.7676 2.8465,4.6366c1.4181,3.5762 4.1342,8.8096 1.3812,15.1207c0.661,-6.9173 -0.1312,-10.0527 -2.2326,-14.71c-0.8668,-1.8107 -1.8408,-3.3755 -2.7196,-4.4609c-0.4373,-0.5427 -0.8574,-0.9671 -1.2021,-1.2423c-0.3455,-0.2752 -0.6284,-0.3721 -0.7047,-0.3721h-0.0103h-0.0103c-0.1423,-0.006 -0.6062,0.1929 -1.1454,0.7245c-0.5376,0.5307 -1.1558,1.346 -1.78,2.386c-1.2483,2.0817 -2.5104,5.0637 -3.2683,8.5403c-1.5167,6.9542 -1.0563,15.8615 5.2832,23.7219l0.7648,0.9491l-1.2038,-0.1955l-2.6313,-0.4107c1.1429,7.2054 4.4498,12.8692 7.8441,18.5579l0.4219,0.7031h-0.8223c-1.3255,0.0051 -2.7256,-0.7014 -4.2354,-1.9274c-1.1909,-0.9671 -2.4804,-2.3578 -3.8445,-3.9619c0.8548,3.6918 3.3387,7.2122 4.1592,10.9949l0.264,1.1841l-0.9868,-0.6954c-1.0683,-0.757 -2.2317,-1.346 -3.4629,-2.8267c-0.3078,4.845 0.9139,9.3659 2.6107,13.832l0.4407,1.1635l-1.1061,-0.5882c-6.6969,-3.5427 -9.5031,-9.1079 -10.9263,-13.3528c-0.2461,0.4493 -0.3841,1.0786 -0.4107,1.8305c-0.1123,1.7114 -0.1689,2.5876 0.0086,4.5784c-2.3047,-4.8339 -2.0878,-13.4591 -1.4267,-18.5964c0.6584,-4.6556 1.7705,-8.7333 2.867,-11.4254l-2.1906,1.7327l-1.2329,0.968l0.4887,-1.4867c2.0114,-6.0736 4.1789,-11.776 7.7867,-15.75c-0.2589,-3.2563 0.0137,-6.3865 0.6251,-9.1953c0.7819,-3.5787 2.0688,-6.6515 3.3763,-8.8335c0.6533,-1.0906 1.3161,-1.96 1.9368,-2.5722c0.6139,-0.6061 1.1858,-1.0005 1.8296,-0.9782c0.006,0.0017 0.0112,-0.0086 0.0189,-0.0086zM262.6475,125.6205c-2.8353,3.4183 -4.7713,8.1253 -6.5246,13.255c0.8891,-0.5436 2.7865,-1.9737 3.9525,-3.036c-2.5233,4.4112 -3.7485,10.2782 -4.3735,14.5891c-0.5727,4.0511 -0.739,8.4606 -0.2349,12.5108c0.1715,-0.7039 0.4501,-1.34 1.0374,-1.7413l0.5179,-0.3618l0.1963,0.607c1.2278,3.9577 3.6927,9.2965 9.6643,12.9129c-1.6161,-4.5097 -2.7418,-9.1739 -2.152,-14.2324l0.1569,-1.2818l0.7039,1.076c1.0383,1.587 1.966,2.2267 2.9237,2.8465c-1.1498,-3.6129 -3.7407,-7.3031 -4.0974,-11.5042l-0.1269,-1.5356l0.968,1.2029c1.767,2.2035 3.3712,3.9294 4.7944,5.0868c1.016,0.824 1.9308,1.3341 2.729,1.5656c-3.3249,-5.5901 -6.5632,-11.3294 -7.5817,-18.6839l-0.0772,-0.6259l0.6165,0.0977l2.1803,0.3421c-3.1543,-4.2491 -4.7302,-8.7495 -5.2729,-13.0895z"></path><path stroke-width="0.85737" stroke="none" fill="#000000" d="M285.8421,104.98l-0.4107,1.0469l-0.8025,2.0834c3.6241,-1.767 8.127,-2.182 12.4619,-1.5458c4.791,0.7039 9.3694,2.6681 12.3068,5.5858c0.5839,0.601 0.8737,1.0022 1.0666,1.3349c-1.3067,-0.8239 -2.7882,-1.2904 -4.0897,-1.2072c6.1928,6.4732 7.845,14.6405 7.8758,22.5876l0.0103,0.6558l-0.6259,-0.2152c-6.2545,-1.9316 -14.6679,-4.7241 -17.0789,-6.955l5.1949,5.2043l0.8505,0.8411l-1.1943,-0.0386c-5.3346,-0.1921 -10.3614,-3.1166 -15.1824,-8.1588v2.2695v1.028l-0.7828,-0.6756c-2.9202,-2.5344 -6.0059,-5.3381 -8.0208,-9.2443l0.8326,-0.4304c1.7481,3.3901 4.382,5.9382 7.033,8.2763v-2.3861v-1.214l0.8119,0.9002c4.569,5.0328 9.2185,7.9633 14.0576,8.5592c-3.1303,-3.0934 -6.5778,-6.5504 -9.3266,-9.6318c7.0048,6.2237 12.7552,7.1823 22.4641,10.5603c-0.1192,-7.8947 -1.8622,-15.7997 -8.2274,-21.9805l-0.6764,-0.6559l0.9294,-0.1466c0.5958,-0.0926 1.1403,-0.0815 1.6624,-0.0292c-2.6956,-1.9548 -6.2691,-3.3514 -10.027,-3.9027c-4.6255,-0.6791 -9.4431,-0.1149 -12.9712,2.0054l-1.1738,0.7047l0.499,-1.2817l0.812,-2.104c-2.6948,1.3297 -5.2,3.1028 -7.6204,5.1065l-0.607,-0.7236c2.7753,-2.2952 5.6792,-4.3606 8.9124,-5.771z"></path><path stroke-width="1.28606" stroke="#000000" fill="none" d="M307.1573,132.5455c1.8193,9.0316 0.7588,14.9861 -0.6996,19.4178"></path><path stroke-width="0.85737" stroke="none" fill="#000000" d="M305.4948,150.7801c1.3058,0.938 2.1503,1.8485 2.6227,2.7591c0.4724,0.9097 0.5616,1.8185 0.3721,2.6407c-0.3806,1.6453 -1.7499,2.9305 -3.0128,3.9439l-0.0197,0.0103l-0.0094,0.0103c-3.9474,2.6724 -8.7401,3.2083 -13.3519,3.1397c-5.6896,-0.084 -9.9902,-0.9268 -15.2716,-2.7685c4.5287,1.2278 11.8198,1.7602 15.2793,1.8288c4.5166,0.0669 9.0873,-0.4647 12.7852,-2.9536c0.0034,-0.0035 0.0068,-0.0069 0.0103,-0.0112c0.006,-0.0043 0.012,-0.006 0.0197,-0.0094c1.2003,-0.9671 2.3629,-2.1555 2.6493,-3.3944c0.1457,-0.625 0.096,-1.2732 -0.283,-2.0054c-0.9611,-1.9016 -1.5793,-2.5044 -3.4046,-4.178z"></path><path stroke-width="0.85737" stroke="none" fill="#000000" d="M213.6691,159.7611c0.5487,0.0121 1.0974,0.0472 1.6316,0.1064c4.2903,0.4827 8.1331,2.3912 9.9567,4.7044l-0.7434,0.5779c-1.5724,-1.996 -5.2479,-3.8942 -9.3222,-4.3529c-4.0657,-0.4579 -8.4931,0.4647 -11.7589,3.8933c-0.006,0.006 -0.0129,0.0137 -0.018,0.0189c-2.098,2.5969 -3.8462,5.3483 -5.6844,7.8749c0.7082,-0.0951 1.4164,-0.1903 2.1246,-0.2837c-1.6942,6.3848 -2.6082,13.279 -4.6264,18.9385c-1.6033,4.3923 -3.7965,7.6727 -7.3271,9.2442c0.7399,0.1621 1.4061,0.1235 2.0842,-0.1577c2.4436,-1.0649 3.8908,-2.7333 5.4298,-4.8425c-1.0854,3.2778 -4.8939,7.1059 -7.3083,8.2968c-1.8408,0.8265 -3.5606,0.7374 -5.3886,0.6945c-0.0034,0 -0.0068,0 -0.0103,0c-6.618,-0.1037 -11.9192,-2.6956 -15.4361,-7.4137c-0.1106,5.4332 1.6333,9.1482 4.1462,11.7006c3.7493,3.3978 7.2011,4.5509 11.8121,5.5275c-2.0226,0.1826 -3.625,0.204 -5.4521,0.144c5.0911,2.8637 10.7369,2.4795 14.74,0.2452c3.9705,-2.2163 6.9996,-6.6652 8.9879,-10.5637l0.4321,-0.8522l0.4115,0.8625l0.9097,1.8871c2.7428,-4.8382 3.8728,-11.9964 3.667,-16.0124c0,-0.0051 0.0017,-0.0077 0,-0.0111c0,-0.0034 0.0017,-0.0086 0,-0.0111c-0.3515,-4.1883 0.3721,-5.9682 0.7434,-7.3383l0.234,-0.8488l0.5779,0.673c0.3035,0.3584 0.5761,0.7537 0.8025,1.1943c0.4287,-1.5552 0.3952,-3.4037 0.6062,-5.5952c0.2683,-2.7633 1.0194,-6.0188 3.895,-9.6746c0.0034,-0.0051 0.0052,-0.012 0.0103,-0.018c1.0228,-1.425 2.4598,-1.8562 3.7073,-1.8005c1.2509,0.0566 2.3295,0.5427 2.9056,0.92l-0.5092,0.7828c-0.4176,-0.2736 -1.4113,-0.7168 -2.4367,-0.764c-1.0246,-0.0471 -2.0714,0.2444 -2.9134,1.4284l-0.0103,0.0103l-0.0111,0.0103c-2.7685,3.5135 -3.4484,6.5203 -3.7064,9.1962c-0.2598,2.675 -0.0386,5.0474 -1.1352,7.1308l-0.6645,1.2629l-0.2152,-1.4181c-0.0686,-0.4673 -0.2469,-0.8642 -0.4698,-1.2423c-0.3652,1.2655 -0.7476,2.7401 -0.4707,6.0256v0.0103v0.0111c0.2332,4.455 -0.9851,12.2493 -4.2337,17.355l-0.4596,0.7134l-0.3626,-0.764l-0.9106,-1.8973c-2.0277,3.7853 -4.9427,7.9435 -8.921,10.1633c-4.7121,2.6287 -11.4956,2.8765 -17.2452,-1.2141l-1.2706,-0.9096l1.5535,0.0583l1.2424,0.0385c-2.2841,-0.8573 -4.599,-2.116 -6.5161,-4.0588c-2.8988,-2.9416 -4.8467,-7.3631 -4.3735,-13.7728l0.1089,-1.4096l0.7631,1.1952c3.324,5.2017 8.5926,8.001 15.4859,8.1082c1.8476,0.042 3.3729,0.114 4.9985,-0.6164c0.7528,-0.3378 1.5441,-0.8754 2.3964,-1.6625c-1.2021,0.427 -2.4496,0.3052 -3.7948,-0.3035l-1.1343,-0.5179l1.1943,-0.3618c3.932,-1.1977 6.2229,-4.382 7.9625,-9.1464c1.683,-4.6084 2.8019,-10.6838 4.2954,-17.5205c-0.9928,0.1269 -1.9839,0.2624 -2.9742,0.4013c2.5824,-3.2649 4.8382,-6.9628 7.0433,-9.7141l0.0103,-0.0103l0.0103,-0.018c3.0591,-3.2357 7.0982,-4.3906 10.9341,-4.3075z"></path><path stroke-width="0.85737" stroke="none" fill="#000000" d="M281.2431,180.8028c1.7533,3.3952 4.28,9.2614 1.7131,16.2284l-0.8806,-0.3223c2.669,-4.2295 0.3636,-12.9618 -0.8325,-15.9061z"></path><path stroke-width="0.85737" stroke="none" fill="#000000" d="M268.614,113.8444c-1.8039,3.6627 -1.2484,7.8862 -0.0369,11.9278c-2.0945,-3.9267 -2.9373,-8.001 0.0369,-11.9278z"></path></g></g></g></svg>