<svg version="1.1" xmlns="http://www.w3.org/2000/svg" xmlns:xlink="http://www.w3.org/1999/xlink" width="66.80472" height="117.8517" viewBox="0,0,66.80472,117.8517"><g transform="translate(-206.59764,-117.94915)"><g data-paper-data="{&quot;isPaintingLayer&quot;:true}" fill-rule="nonzero" stroke-dasharray="" stroke-dashoffset="0" style="mix-blend-mode: normal"><path d="M247.8853,212.72415v12.50183c0,0.96767 -0.78563,1.7533 -1.7533,1.7533v0c-0.96767,0 -1.7533,-0.78563 -1.7533,-1.7533v-12.50183c0,-0.96767 0.78563,-1.7533 1.7533,-1.7533v0c0.96767,0 1.7533,0.78563 1.7533,1.7533z" fill="#2e2e2e" stroke="none" stroke-width="1" stroke-linecap="butt" stroke-linejoin="miter" stroke-miterlimit="10"/><path d="M246.132,214.70615c-2.06158,0 -3.7353,-1.67372 -3.7353,-3.7353c0,-2.06158 1.67372,-3.7353 3.7353,-3.7353c2.06158,0 3.7353,1.67372 3.7353,3.7353c0,2.06158 -1.67372,3.7353 -3.7353,3.7353z" fill="#ff4c4c" stroke="none" stroke-width="1" stroke-linecap="butt" stroke-linejoin="miter" stroke-miterlimit="10"/><path d="M249.18016,225.64952v6.16981c0,1.6632 -1.35035,3.01355 -3.01355,3.01355h-0.07135c-1.6632,0 -3.01355,-1.35035 -3.01355,-3.01355v-6.16981c0,-1.6632 1.35035,-3.01355 3.01355,-3.01355h0.07135c1.6632,0 3.01355,1.35035 3.01355,3.01355z" fill="#ff4c4c" stroke="none" stroke-width="1" stroke-linecap="butt" stroke-linejoin="miter" stroke-miterlimit="10"/><path d="M242.17593,235.80085c0,-3.36589 2.73257,-6.09845 6.09845,-6.09845c3.36589,0 6.09845,2.73257 6.09845,6.09845c-7.57657,0 -4.96292,0 -12.19691,0z" fill="#ff4c4c" stroke="none" stroke-width="1" stroke-linecap="butt" stroke-linejoin="miter" stroke-miterlimit="10"/><path d="M233.64602,210.97085v0c0.96767,0 1.7533,0.78563 1.7533,1.7533v12.50183c0,0.96767 -0.78563,1.7533 -1.7533,1.7533v0c-0.96767,0 -1.7533,-0.78563 -1.7533,-1.7533v-12.50183c0,-0.96767 0.78563,-1.7533 1.7533,-1.7533z" fill="#2e2e2e" stroke="none" stroke-width="1" stroke-linecap="butt" stroke-linejoin="miter" stroke-miterlimit="10"/><path d="M229.91072,210.97085c0,-2.06158 1.67372,-3.7353 3.7353,-3.7353c2.06158,0 3.7353,1.67372 3.7353,3.7353c0,2.06158 -1.67372,3.7353 -3.7353,3.7353c-2.06158,0 -3.7353,-1.67372 -3.7353,-3.7353z" fill="#ff4c4c" stroke="none" stroke-width="1" stroke-linecap="butt" stroke-linejoin="miter" stroke-miterlimit="10"/><path d="M233.61141,222.63597h0.0712c1.66335,0 3.0137,1.35035 3.0137,3.01355v6.16981c0,1.6632 -1.35035,3.01355 -3.0137,3.01355h-0.0712c-1.66335,0 -3.01355,-1.35035 -3.01355,-3.01355v-6.16981c0,-1.6632 1.3502,-3.01355 3.01355,-3.01355z" fill="#ff4c4c" stroke="none" stroke-width="1" stroke-linecap="butt" stroke-linejoin="miter" stroke-miterlimit="10"/><path d="M225.40518,235.80085c0,-3.36589 2.73257,-6.09845 6.09845,-6.09845c3.36589,0 6.09845,2.73257 6.09845,6.09845c-7.23398,0 -4.62034,0 -12.19691,0z" fill="#ff4c4c" stroke="none" stroke-width="1" stroke-linecap="butt" stroke-linejoin="miter" stroke-miterlimit="10"/><path d="M230.57118,207.21435c0,-3.53405 4.23553,-6.40338 9.4526,-6.40338c5.21707,0 9.4526,2.86932 9.4526,6.40338c0,3.53405 -4.23553,6.40338 -9.4526,6.40338c-5.21707,0 -9.4526,-2.86932 -9.4526,-6.40338z" fill="#ff4c4c" stroke="none" stroke-width="1" stroke-linecap="butt" stroke-linejoin="miter" stroke-miterlimit="10"/><path d="M230.41872,200.73474c0,-5.30123 4.30383,-9.60507 9.60507,-9.60507c5.30123,0 9.60507,4.30383 9.60507,9.60507c0,5.30123 -4.30383,9.60507 -9.60507,9.60507c-5.30123,0 -9.60507,-4.30383 -9.60507,-9.60507z" fill="#2e2e2e" stroke="none" stroke-width="1" stroke-linecap="butt" stroke-linejoin="miter" stroke-miterlimit="10"/><path d="M251.85402,189.22406v0c0.83808,-0.48391 1.91126,-0.19637 2.39502,0.64171l6.25092,10.82689c0.48391,0.83808 0.19637,1.91126 -0.64171,2.39502v0c-0.83808,0.48391 -1.91126,0.19637 -2.39502,-0.64171l-6.25092,-10.82689c-0.48391,-0.83808 -0.19637,-1.91126 0.64171,-2.39502z" fill="#2e2e2e" stroke="none" stroke-width="1" stroke-linecap="butt" stroke-linejoin="miter" stroke-miterlimit="10"/><path d="M246.90269,192.08272c-1.57767,-2.73272 -0.64003,-6.23232 2.09268,-7.80999c2.73272,-1.57782 6.23232,-0.64003 7.80999,2.09268c1.57767,2.73272 0.64003,6.23216 -2.09268,7.80999c-2.73272,1.57767 -6.23232,0.64003 -7.80999,-2.09268z" fill="#ff4c4c" stroke="none" stroke-width="1" stroke-linecap="butt" stroke-linejoin="miter" stroke-miterlimit="10"/><path d="M261.77118,200.41198l3.0849,5.34331c0.83168,1.4403 0.3374,3.28493 -1.10306,4.11646l-0.06175,0.03568c-1.44045,0.83168 -3.28493,0.3374 -4.11661,-1.1029l-3.0849,-5.34331c-0.83168,-1.4403 -0.3374,-3.28493 1.10306,-4.11661l0.06175,-0.03568c1.44045,-0.83152 3.28493,-0.33724 4.11661,1.10306z" fill="#ff4c4c" stroke="none" stroke-width="1" stroke-linecap="butt" stroke-linejoin="miter" stroke-miterlimit="10"/><path d="M256.08605,213.23657c0.17574,-1.16023 0.41495,-2.053 0.71763,-2.67829c0.30269,-0.6254 0.85922,-1.32794 1.6696,-2.10762" fill="none" stroke="#2e2e2e" stroke-width="7.5" stroke-linecap="round" stroke-linejoin="round" stroke-miterlimit="3"/><path d="M260.9985,212.7769c0.31193,1.08044 0.44264,1.96716 0.39213,2.66015c-0.05051,0.69289 -0.28978,1.58565 -0.71779,2.67829" fill="none" stroke="#2e2e2e" stroke-width="7.5" stroke-linecap="round" stroke-linejoin="round" stroke-miterlimit="3"/><path d="M264.87422,212.8385c0.58098,0.96284 0.93672,1.78547 1.06723,2.46789c0.13051,0.68242 0.13051,1.60669 0,2.77282" fill="none" stroke="#2e2e2e" stroke-width="7.5" stroke-linecap="round" stroke-linejoin="round" stroke-miterlimit="3"/><path d="M267.26512,210.02924c0.81038,0.77969 1.36692,1.48223 1.6696,2.10762c0.30269,0.6254 0.5419,1.51816 0.71763,2.67829" fill="none" stroke="#2e2e2e" stroke-width="7.5" stroke-linecap="round" stroke-linejoin="round" stroke-miterlimit="3"/><path d="M262.84557,213.99492c-2.9451,0 -5.33615,-2.39105 -5.33615,-5.33615c0,-2.9451 2.39105,-5.33615 5.33615,-5.33615c2.9451,0 5.33615,2.39105 5.33615,5.33615c0,2.9451 -2.39105,5.33615 -5.33615,5.33615z" fill="#ff4c4c" stroke="none" stroke-width="1" stroke-linecap="butt" stroke-linejoin="miter" stroke-miterlimit="10"/><path d="M228.58919,194.94121c0,-6.31098 5.12362,-11.4346 11.4346,-11.4346c6.31098,0 11.4346,5.12362 11.4346,11.4346c0,6.31098 -5.12362,8.38537 -11.4346,8.38537c-6.31098,0 -11.4346,-2.07439 -11.4346,-8.38537z" fill="#ff4c4c" stroke="none" stroke-width="1" stroke-linecap="butt" stroke-linejoin="miter" stroke-miterlimit="10"/><path d="M234.30648,191.51083c0,-3.15549 2.56181,-5.7173 5.7173,-5.7173c3.15549,0 5.7173,2.56181 5.7173,5.7173c0,3.15549 -2.56181,5.7173 -5.7173,5.7173c-3.15549,0 -5.7173,-2.56181 -5.7173,-5.7173z" fill="#2e2e2e" stroke="none" stroke-width="1" stroke-linecap="butt" stroke-linejoin="miter" stroke-miterlimit="10"/><path d="M237.27948,188.08045h5.48861c0.37871,0 0.68608,0.30736 0.68608,0.68608v0c0,0.37871 -0.30736,0.68608 -0.68608,0.68608h-5.48861c-0.37871,0 -0.68608,-0.30736 -0.68608,-0.68608v0c0,-0.37871 0.30736,-0.68608 0.68608,-0.68608z" fill="#ffffff" stroke="none" stroke-width="1" stroke-linecap="butt" stroke-linejoin="miter" stroke-miterlimit="10"/><path d="M240.70986,188.76653v5.48861c0,0.37871 -0.30736,0.68608 -0.68608,0.68608v0c-0.37871,0 -0.68608,-0.30736 -0.68608,-0.68608v-5.48861c0,-0.37871 0.30736,-0.68608 0.68608,-0.68608v0c0.37871,0 0.68608,0.30736 0.68608,0.68608z" fill="#ffffff" stroke="none" stroke-width="1" stroke-linecap="butt" stroke-linejoin="miter" stroke-miterlimit="10"/><path d="M240.02378,130.60252v0c0.96767,0 1.7533,0.78563 1.7533,1.7533v12.50183c0,0.96767 -0.78563,1.7533 -1.7533,1.7533v0c-0.96767,0 -1.7533,-0.78563 -1.7533,-1.7533v-12.50183c0,-0.96767 0.78563,-1.7533 1.7533,-1.7533z" fill="#2e2e2e" stroke="none" stroke-width="1" stroke-linecap="butt" stroke-linejoin="miter" stroke-miterlimit="10"/><path d="M247.95178,124.19915c0,4.37564 -3.55235,7.92799 -7.92799,7.92799c-4.37564,0 -7.92799,-3.55235 -7.92799,-7.92799" fill="none" stroke="#2e2e2e" stroke-width="12.5" stroke-linecap="round" stroke-linejoin="round" stroke-miterlimit="3"/><path d="M217.15458,162.16202c0,-12.62182 10.24738,-22.8692 22.8692,-22.8692c12.62182,0 22.8692,10.24738 22.8692,22.8692c0,12.62182 -10.24738,22.8692 -22.8692,22.8692c-12.62182,0 -22.8692,-10.24738 -22.8692,-22.8692z" fill="#ff4c4c" stroke="none" stroke-width="1" stroke-linecap="butt" stroke-linejoin="miter" stroke-miterlimit="10"/><path d="M235.3486,171.4778c3.33256,0.63941 15.13733,2.90434 17.23104,3.30605c0.61984,0.11893 0.61235,0.92105 0.32826,1.24675c-3.01734,3.45939 -6.59278,5.18909 -10.72633,5.18909c-6.66066,0 -9.29121,-3.05946 -7.89166,-9.17838c0.05471,-0.23919 0.50277,-0.67018 1.05869,-0.56352z" fill="#ffffff" stroke="none" stroke-width="1" stroke-linecap="butt" stroke-linejoin="miter" stroke-miterlimit="10"/><path d="M228.20788,189.22406v0c0.83808,0.48376 1.12562,1.55694 0.64186,2.39502l-6.25092,10.82689c-0.48391,0.83808 -1.55709,1.12562 -2.39517,0.64171v0c-0.83793,-0.48376 -1.12547,-1.55694 -0.64171,-2.39502l6.25092,-10.82689c0.48391,-0.83808 1.55709,-1.12562 2.39502,-0.64171z" fill="#2e2e2e" stroke="none" stroke-width="1" stroke-linecap="butt" stroke-linejoin="miter" stroke-miterlimit="10"/><path d="M223.25654,186.36541c1.57782,-2.73272 5.07727,-3.67051 7.80999,-2.09268c2.73272,1.57767 3.67051,5.07727 2.09268,7.80999c-1.57767,2.73272 -5.07727,3.67035 -7.80999,2.09268c-2.73272,-1.57782 -3.67035,-5.07727 -2.09268,-7.80999z" fill="#ff4c4c" stroke="none" stroke-width="1" stroke-linecap="butt" stroke-linejoin="miter" stroke-miterlimit="10"/><path d="M222.34544,199.30892l0.06175,0.03568c1.4403,0.83168 1.93458,2.67631 1.10306,4.11661l-3.0849,5.34331c-0.83168,1.4403 -2.67631,1.93458 -4.11661,1.1029l-0.06175,-0.03568c-1.44045,-0.83152 -1.93474,-2.67615 -1.10306,-4.11646l3.0849,-5.34331c0.83152,-1.4403 2.67615,-1.93458 4.11661,-1.10306z" fill="#ff4c4c" stroke="none" stroke-width="1" stroke-linecap="butt" stroke-linejoin="miter" stroke-miterlimit="10"/><path d="M221.52672,208.45066c0.81038,0.77969 1.36692,1.48223 1.6696,2.10762c0.30269,0.62529 0.5419,1.51806 0.71763,2.67829" fill="none" stroke="#2e2e2e" stroke-width="7.5" stroke-linecap="round" stroke-linejoin="round" stroke-miterlimit="3"/><path d="M219.32701,218.11534c-0.42791,-1.09264 -0.66712,-1.9854 -0.71763,-2.67829c-0.05051,-0.69299 0.0802,-1.5797 0.39213,-2.66015" fill="none" stroke="#2e2e2e" stroke-width="7.5" stroke-linecap="round" stroke-linejoin="round" stroke-miterlimit="3"/><path d="M214.05855,218.0792c-0.13061,-1.16613 -0.13061,-2.0904 0,-2.77282c0.13051,-0.68242 0.48625,-1.50505 1.06723,-2.46789" fill="none" stroke="#2e2e2e" stroke-width="7.5" stroke-linecap="round" stroke-linejoin="round" stroke-miterlimit="3"/><path d="M210.34764,214.81516c0.17563,-1.16013 0.41485,-2.05289 0.71763,-2.67829c0.30269,-0.6254 0.85922,-1.32794 1.6696,-2.10762" fill="none" stroke="#2e2e2e" stroke-width="7.5" stroke-linecap="round" stroke-linejoin="round" stroke-miterlimit="3"/><path d="M211.81828,208.65877c0,-2.9451 2.39105,-5.33615 5.33615,-5.33615c2.9451,0 5.33615,2.39105 5.33615,5.33615c0,2.9451 -2.39105,5.33615 -5.33615,5.33615c-2.9451,0 -5.33615,-2.39105 -5.33615,-5.33615z" fill="#ff4c4c" stroke="none" stroke-width="1" stroke-linecap="butt" stroke-linejoin="miter" stroke-miterlimit="10"/><path d="M249.17147,162.16202c0,-4.20732 3.41574,-7.62307 7.62307,-7.62307c4.20732,0 7.62307,3.41574 7.62307,7.62307c0,4.20732 -3.41574,7.62307 -7.62307,7.62307c-4.20732,0 -7.62307,-3.41574 -7.62307,-7.62307z" fill="#ff4c4c" stroke="none" stroke-width="1" stroke-linecap="butt" stroke-linejoin="miter" stroke-miterlimit="10"/><path d="M250.69608,162.16202c0,-3.36589 2.73257,-6.09845 6.09845,-6.09845c3.36589,0 6.09845,2.73257 6.09845,6.09845c0,3.36589 -2.73257,6.09845 -6.09845,6.09845c-3.36589,0 -6.09845,-2.73257 -6.09845,-6.09845z" fill="#ffffff" stroke="none" stroke-width="1" stroke-linecap="butt" stroke-linejoin="miter" stroke-miterlimit="10"/><path d="M252.22069,162.16202c0,-2.5243 2.04954,-4.57384 4.57384,-4.57384c2.5243,0 4.57384,2.04954 4.57384,4.57384c0,2.5243 -2.04954,4.57384 -4.57384,4.57384c-2.5243,0 -4.57384,-2.04954 -4.57384,-4.57384z" fill="#171717" stroke="none" stroke-width="1" stroke-linecap="butt" stroke-linejoin="miter" stroke-miterlimit="10"/><path d="M252.22069,162.16202c0,-1.26223 1.02469,-2.28692 2.28692,-2.28692c1.26223,0 2.28692,1.02469 2.28692,2.28692c0,1.26223 -1.02469,2.28692 -2.28692,2.28692c-1.26223,0 -2.28692,-1.02469 -2.28692,-2.28692z" fill="#ffffff" stroke="none" stroke-width="1" stroke-linecap="butt" stroke-linejoin="miter" stroke-miterlimit="10"/><path d="M226.30226,162.16202c0,-4.20732 3.41574,-7.62307 7.62307,-7.62307c4.20732,0 7.62307,3.41574 7.62307,7.62307c0,4.20732 -3.41574,7.62307 -7.62307,7.62307c-4.20732,0 -7.62307,-3.41574 -7.62307,-7.62307z" fill="#ff4c4c" stroke="none" stroke-width="1" stroke-linecap="butt" stroke-linejoin="miter" stroke-miterlimit="10"/><path d="M227.82688,162.16202c0,-3.36589 2.73257,-6.09845 6.09845,-6.09845c3.36589,0 6.09845,2.73257 6.09845,6.09845c0,3.36589 -2.73257,6.09845 -6.09845,6.09845c-3.36589,0 -6.09845,-2.73257 -6.09845,-6.09845z" fill="#ffffff" stroke="none" stroke-width="1" stroke-linecap="butt" stroke-linejoin="miter" stroke-miterlimit="10"/><path d="M229.35149,162.16202c0,-2.5243 2.04954,-4.57384 4.57384,-4.57384c2.5243,0 4.57384,2.04954 4.57384,4.57384c0,2.5243 -2.04954,4.57384 -4.57384,4.57384c-2.5243,0 -4.57384,-2.04954 -4.57384,-4.57384z" fill="#171717" stroke="none" stroke-width="1" stroke-linecap="butt" stroke-linejoin="miter" stroke-miterlimit="10"/><path d="M229.35149,162.16202c0,-1.26223 1.02469,-2.28692 2.28692,-2.28692c1.26223,0 2.28692,1.02469 2.28692,2.28692c0,1.26223 -1.02469,2.28692 -2.28692,2.28692c-1.26223,0 -2.28692,-1.02469 -2.28692,-2.28692z" fill="#ffffff" stroke="none" stroke-width="1" stroke-linecap="butt" stroke-linejoin="miter" stroke-miterlimit="10"/></g></g></svg>